# AST/ASF file generated using VICON BodyLanguage
# -----------------------------------------------
:version 1.10
:name VICON
:units
  mass 1.0
  length 0.45
  angle deg
:documentation
   .ast/.asf automatically generated from VICON data using
   VICON BodyBuilder and BodyLanguage model FoxedUp or BRILLIANT.MOD
:root
   order TX TY TZ RX RY RZ
   axis XYZ
   position 0 0 0  
   orientation 0 0 0 
:bonedata
  begin
     id 1 
     name lhipjoint
     direction 0.646821 -0.743844 0.168282 
     length 2.62284 
     axis 0 0 0  XYZ
  end
  begin
     id 2 
     name lfemur
     direction 0.34202 -0.939693 0  
     length 7.79098  
     axis 0 0 20  XYZ
    dof rx ry rz
    limits (-160.0 20.0)
           (-70.0 70.0)
           (-60.0 70.0)
  end
  begin
     id 3 
     name ltibia
     direction 0.34202 -0.939693 0   
     length 8.1986   
     axis 0 0 20   XYZ
    dof rx
    limits (-10.0 170.0)
  end
  begin
     id 4 
     name lfoot
     direction 0.0766762 -0.210666 0.974546   
     length 1.95107   
     axis -90 7.62852e-016 20   XYZ
    dof rx rz
    limits (-45.0 90.0)
           (-70.0 20.0)
  end
  begin
     id 5 
     name ltoes
     direction 1.53582e-011 -4.21539e-011 1   
     length 0.983514   
     axis -90 7.62852e-016 20   XYZ
    dof rx
    limits (-90.0 20.0)
  end
  begin
     id 6 
     name rhipjoint
     direction -0.658967 -0.733632 0.165972   
     length 2.65935  
     axis 0 0 0  XYZ 
  end
  begin
     id 7 
     name rfemur
     direction -0.34202 -0.939693 0   
     length 7.69405   
     axis 0 0 -20   XYZ
    dof rx ry rz
    limits (-160.0 20.0)
           (-70.0 70.0)
           (-70.0 60.0)
  end
  begin
     id 8 
     name rtibia
     direction -0.34202 -0.939693 0   
     length 8.15138   
     axis 0 0 -20   XYZ
    dof rx
    limits (-10.0 170.0)
 end
 begin
     id 9 
     name rfoot
     direction -0.0806473 -0.221577 0.971802   
     length 2.09362  
     axis -90 -7.62852e-016 -20   XYZ
    dof rx rz
    limits (-45.0 90.0)
           (-20.0 70.0)
  end
  begin
     id 10 
     name rtoes
     direction -1.53524e-011 -4.2203e-011 1   
     length 1.05224   
     axis -90 -7.62852e-016 -20   XYZ
    dof rx
    limits (-90.0 20.0)
  end
  begin
     id 11 
     name lowerback
     direction -0.0484271 0.997202 0.0569433   
     length 1.86801   
     axis 0 0 0   XYZ
    dof rx ry rz
    limits (-20.0 45.0)
           (-30.0 30.0)
           (-30.0 30.0)
  end
  begin
     id 12 
     name upperback
     direction 0.0148864 0.998882 0.0448682   
     length 1.86634   
     axis 0 0 0   XYZ
    dof rx ry rz
    limits (-20.0 45.0)
           (-30.0 30.0)
           (-30.0 30.0)
  end
  begin
     id 13 
     name thorax
     direction 0.0368776 0.99918 0.0167067   
     length 1.87554   
     axis 0 0 0   XYZ
    dof rx ry rz
    limits (-20.0 45.0)
           (-30.0 30.0)
           (-30.0 30.0)
  end
  begin
     id 14 
     name lowerneck
     direction -0.0200531 0.999751 0.00976032   
     length 1.82429   
     axis 0 0 0   XYZ
    dof rx ry rz
    limits (-20.0 45.0)
           (-30.0 30.0)
           (-30.0 30.0)
  end
  begin
     id 15 
     name upperneck
     direction 0.0113135 0.99728 -0.0728357   
     length 1.79098   
     axis 0 0 0   XYZ
    dof rx ry rz
    limits (-20.0 45.0)
           (-30.0 30.0)
           (-30.0 30.0)
  end
  begin
     id 16
     name head
     direction 0.00559662 0.999607 -0.0274604  
     length 1.88003  
     axis 0 0 0   XYZ
    dof rx ry rz
    limits (-20.0 45.0)
           (-30.0 30.0)
           (-30.0 30.0)
  end
  begin
     id 17 
     name lclavicle
     direction 0.931914 0.362632 -0.00585704  
     length 3.94155  
     axis 0 0 0   XYZ
    dof ry rz
    limits (-20.0 10.0)
           (0.0 20.0)
  end
  begin
     id 18 
     name lhumerus
     direction 1 -4.48969e-011 2.13403e-027   
     length 5.77473   
     axis 180 -30 -90   XYZ
    dof rx ry rz
    limits (-60.0 90.0)
           (-90.0 90.0)
           (-90.0 90.0)
  end
  begin
     id 19
     name lradius
     direction 1 -4.48969e-011 5.41017e-027   
     length 3.53732   
     axis 180 -30 -90   XYZ
    dof rx
    limits (-10.0 170.0)
  end
  begin
     id 20
     name lwrist
     direction 1 -4.48986e-011 1.36145e-026   
     length 1.76866   
     axis -8.75986e-015 90 90   XYZ
    dof ry
    limits (-180.0 0.0)
 end
  begin
     id 21 
     name lhand
     direction 1 -4.48703e-011 2.72291e-026   
     length 0.556229   
     axis -1.73745e-014 90 90   XYZ
    dof rx rz
    limits (-90.0 90.0)
           (-45.0 45.0)
  end
  begin
     id 22 
     name lfingers
     direction 1 -4.49204e-011 5.44582e-026   
     length 0.448446   
     axis -3.4749e-014 90 90   XYZ
    dof rx
    limits (0.0 90.0)
  end
  begin
     id 23
     name lthumb
     direction 0.707107 -6.34773e-011 0.707107   
     length 0.643881   
     axis -90 45 2.85299e-015   XYZ
    dof rx rz
    limits (-45.0 45.0)
           (-45.0 45.0)
  end
  begin
     id 24 
     name rclavicle
     direction -0.951782 0.300043 0.0639076   
     length 3.96398  
     axis 0 0 0   XYZ 
    dof ry rz
    limits (-10.0 20.0)
           (-20.0 0.0)
  end
  begin
     id 25 
     name rhumerus
     direction -1 -4.48967e-011 6.14867e-028  
     length 5.79581   
     axis 180 30 90   XYZ
    dof rx ry rz
    limits (-90.0 60.0)
           (-90.0 90.0)
           (-90.0 90.0)
  end
  begin
     id 26 
     name rradius
     direction -1 -4.48966e-011 9.26908e-027   
     length 3.37412   
     axis 180 30 90   XYZ
    dof rx
    limits (-10.0 170.0)
  end
  begin
     id 27 
     name rwrist
     direction -1 -4.48999e-011 1.36145e-026   
     length 1.68706   
     axis -8.75986e-015 -90 -90   XYZ
    dof ry
    limits (-180.0 0.0)
  end
  begin
     id 28
     name rhand
     direction -1 -4.49032e-011 2.72291e-026   
     length 0.680496   
     axis -1.73745e-014 -90 -90   XYZ
    dof rx rz
    limits (-90.0 90.0)
           (-45.0 45.0)
  end
  begin
     id 29
     name rfingers
     direction -1 -4.48876e-011 5.44582e-026   
     length 0.548633   
     axis -3.4749e-014 -90 -90   XYZ
    dof rx
    limits (0.0 90.0)
  end
  begin
     id 30
     name rthumb
     direction -0.707107 -6.34964e-011 0.707107   
     length 0.787731   
     axis -90 -45 -2.85299e-015   XYZ
    dof rx rz
    limits (-45.0 45.0)
           (-45.0 45.0)
  end
:hierarchy
  begin
    root lhipjoint rhipjoint lowerback
    lhipjoint lfemur
    lfemur ltibia
    ltibia lfoot
    lfoot ltoes
    rhipjoint rfemur
    rfemur rtibia
    rtibia rfoot
    rfoot rtoes
    lowerback upperback
    upperback thorax
    thorax lowerneck lclavicle rclavicle
    lowerneck upperneck
    upperneck head
    lclavicle lhumerus
    lhumerus lradius
    lradius lwrist
    lwrist lhand lthumb
    lhand lfingers
    rclavicle rhumerus
    rhumerus rradius
    rradius rwrist
    rwrist rhand rthumb
    rhand rfingers
  end

#!OML:ASF H:\Terrain\Patient Classification 1\PaulMetrics\March1\PaulMetrics.ASF
:FULLY-SPECIFIED
:DEGREES
394
root -9.19404 17.9274 10.5972 -158.501 -46.3959 173.496
lowerback -7.98019 0.119717 -8.44882
upperback -5.99472 0.273676 -0.461944
thorax -1.86102 0.231948 4.28083
lowerneck -4.01058 -3.4483 -3.7287
upperneck 12.1862 -5.20174 4.90756
head 4.5272 -2.56406 1.83929
rclavicle -5.49213e-014 -2.80286e-014
rhumerus -54.7748 21.565 -94.8605
rradius 63.4296
rwrist -12.0865
rhand -16.4766 -33.6054
rfingers 7.12502
rthumb 9.74034 -63.3601
lclavicle -5.49213e-014 -2.80286e-014
lhumerus -56.0002 -7.49871 79.1248
lradius 36.7655
lwrist 1.35312
lhand -15.1714 -7.40268
lfingers 7.12502
lthumb 10.9994 22.2891
rfemur -7.36826 2.37108 22.9704
rtibia 38.9443
rfoot -4.52765 2.27059
rtoes -15.297
lfemur -43.5376 -1.84701 -18.8518
ltibia 26.2427
lfoot -2.50495 2.58079
ltoes -19.0467
395
root -9.34423 17.9265 10.5026 -158.747 -46.1161 173.689
lowerback -7.91791 0.0903852 -8.24328
upperback -6.03698 0.20974 -0.511189
thorax -1.92615 0.194378 4.10988
lowerneck -3.72814 -3.47908 -3.75572
upperneck 12.0826 -5.25584 4.95244
head 4.45224 -2.59687 1.8603
rclavicle 4.31114e-015 -8.57259e-015
rhumerus -55.108 21.4834 -95.3581
rradius 62.0467
rwrist -11.719
rhand -16.4652 -33.6381
rfingers 7.12502
rthumb 9.75133 -63.3924
lclavicle 4.31114e-015 -8.57259e-015
lhumerus -55.5471 -7.26383 78.4166
lradius 36.5607
lwrist 1.4246
lhand -15.007 -8.53073
lfingers 7.12502
lthumb 11.158 21.1526
rfemur -8.4417 1.04471 22.7973
rtibia 41.7331
rfoot -3.28654 1.77378
rtoes -17.036
lfemur -43.4688 -1.16386 -19.2444
ltibia 27.4331
lfoot -2.61884 1.56255
ltoes -17.6823
396
root -9.48785 17.9361 10.4108 -158.66 -45.5171 173.371
lowerback -7.74036 0.0551413 -8.56387
upperback -6.09178 0.152101 -0.567809
thorax -2.08233 0.179301 4.22614
lowerneck -3.39111 -3.42788 -3.77036
upperneck 11.9432 -5.1734 4.80412
head 4.34602 -2.57198 1.82896
rclavicle -5.09694e-014 6.08778e-015
rhumerus -55.4944 21.6442 -95.7909
rradius 60.8262
rwrist -11.3358
rhand -16.3325 -33.8078
rfingers 7.12502
rthumb 9.87938 -63.556
lclavicle -5.09694e-014 6.08778e-015
lhumerus -55.246 -7.00168 77.9907
lradius 36.5006
lwrist 1.32013
lhand -15.735 -8.84206
lfingers 7.12502
lthumb 10.4558 20.8779
rfemur -9.61645 0.0405583 22.1779
rtibia 44.5771
rfoot -2.25141 1.045
rtoes -18.9266
lfemur -43.2276 -0.671287 -19.9013
ltibia 28.5099
lfoot -3.22177 1.11793
ltoes -15.7359
397
root -9.62201 17.9386 10.3245 -158.732 -44.9747 173.292
lowerback -7.47993 -0.0612109 -8.78168
upperback -6.13089 -0.0203371 -0.490443
thorax -2.2496 0.109515 4.41915
lowerneck -3.24732 -3.33724 -3.95939
upperneck 11.9013 -5.0506 4.8714
head 4.30975 -2.52019 1.8898
rclavicle 5.52641e-014 -8.44835e-015
rhumerus -55.6466 21.9875 -96.0517
rradius 59.7729
rwrist -11.7713
rhand -16.2065 -33.8243
rfingers 7.12502
rthumb 10.0009 -63.5667
lclavicle 5.52641e-014 -8.44835e-015
lhumerus -54.9423 -6.73943 77.7207
lradius 36.6972
lwrist 1.75449
lhand -16.19 -7.46283
lfingers 7.12502
lthumb 10.0169 22.2788
rfemur -10.8906 -0.78918 21.8355
rtibia 47.4686
rfoot -1.54779 -0.14175
rtoes -18.8
lfemur -42.9384 -0.126977 -20.3489
ltibia 29.367
lfoot -3.78765 0.708516
ltoes -13.0934
398
root -9.75049 17.9422 10.2453 -158.843 -44.519 173.381
lowerback -7.12841 -0.0298313 -8.56541
upperback -6.26313 -0.0441045 -0.623335
thorax -2.57667 0.100531 4.15738
lowerneck -3.08502 -3.40602 -3.97356
upperneck 11.9181 -5.17611 5.01702
head 4.29723 -2.58157 1.93287
rclavicle -4.86527e-016 1.42566e-014
rhumerus -55.7955 21.877 -96.4335
rradius 58.6409
rwrist -12.4682
rhand -16.1084 -33.5782
rfingers 7.12502
rthumb 10.0956 -63.316
lclavicle -4.86527e-016 1.42566e-014
lhumerus -54.4956 -7.07053 77.3562
lradius 36.8545
lwrist 2.28387
lhand -16.2923 -7.04402
lfingers 7.12502
lthumb 9.91814 22.7023
rfemur -12.3406 -1.62116 21.6974
rtibia 50.3659
rfoot -1.21463 -1.98294
rtoes -17.3616
lfemur -42.6948 0.385322 -20.636
ltibia 30.0124
lfoot -4.17451 0.34605
ltoes -10.4916
399
root -9.88103 17.9627 10.162 -158.655 -43.8874 172.951
lowerback -6.65613 0.115644 -8.54877
upperback -6.45965 0.0590929 -1.03313
thorax -3.06059 0.157156 3.7232
lowerneck -2.76222 -3.4832 -4.08521
upperneck 11.877 -5.35073 5.46673
head 4.25271 -2.66188 2.08595
rclavicle -3.55368e-014 4.55217e-014
rhumerus -56.1369 21.3862 -96.9421
rradius 57.4583
rwrist -12.4235
rhand -15.7866 -33.7569
rfingers 7.12502
rthumb 10.4061 -63.4794
lclavicle -3.55368e-014 4.55217e-014
lhumerus -54.1777 -7.60869 76.8439
lradius 37.1314
lwrist 2.33541
lhand -16.2559 -7.54535
lfingers 7.12502
lthumb 9.95331 22.1993
rfemur -13.8329 -2.50062 21.1129
rtibia 53.2279
rfoot -0.939361 -4.41818
rtoes -18.2905
lfemur -42.2711 0.83847 -21.3519
ltibia 30.5496
lfoot -4.74218 0.104566
ltoes -11.1626
400
root -10.0175 17.9831 10.0689 -158.353 -43.1765 172.409
lowerback -7.36145 -0.0470029 -9.49731
upperback -6.03078 0.017088 -0.753821
thorax -2.2302 0.139032 4.5455
lowerneck -2.87792 -3.48329 -4.76846
upperneck 11.5408 -5.27401 5.59207
head 4.18702 -2.63697 2.23986
rclavicle -8.41923e-015 -1.11319e-014
rhumerus -55.7595 21.8191 -96.4164
rradius 56.517
rwrist -12.371
rhand -15.3325 -34.2368
rfingers 7.12502
rthumb 10.844 -63.9368
lclavicle -8.41923e-015 -1.11319e-014
lhumerus -53.1594 -6.75991 76.7716
lradius 37.2626
lwrist 1.89393
lhand -16.104 -7.24699
lfingers 7.12502
lthumb 10.0998 22.4906
rfemur -15.3155 -3.46934 20.4407
rtibia 55.9873
rfoot -0.835642 -7.23737
rtoes -21.0885
lfemur -41.7379 1.34898 -22.2103
ltibia 30.9278
lfoot -5.43862 -0.0500003
ltoes -13.7006
401
root -10.1463 17.9982 9.97383 -158.321 -42.613 172.356
lowerback -7.44988 -0.168343 -9.58708
upperback -6.01895 -0.132437 -0.726746
thorax -2.14856 0.061931 4.61631
lowerneck -3.12511 -3.49504 -4.71121
upperneck 11.8057 -5.27108 5.3357
head 4.30115 -2.64184 2.14571
rclavicle -8.1725e-014 -3.23025e-015
rhumerus -55.823 21.9695 -96.6408
rradius 55.5148
rwrist -12.2237
rhand -14.984 -34.3661
rfingers 7.12502
rthumb 11.1802 -64.0483
lclavicle -8.1725e-014 -3.23025e-015
lhumerus -52.6388 -6.33975 76.2672
lradius 37.4422
lwrist 1.82013
lhand -16.1505 -7.05325
lfingers 7.12502
lthumb 10.055 22.6865
rfemur -16.8565 -4.37036 20.2877
rtibia 58.5785
rfoot -1.0616 -10.0929
rtoes -21.7193
lfemur -41.2475 2.05343 -22.6884
ltibia 31.1281
lfoot -5.96035 -0.253767
ltoes -14.4126
402
root -10.2604 18.0191 9.88082 -158.369 -42.0881 172.383
lowerback -7.5696 -0.220553 -9.81298
upperback -5.9116 -0.162531 -0.645652
thorax -1.96815 0.0464966 4.82617
lowerneck -3.19921 -3.60151 -4.68485
upperneck 11.8101 -5.38687 5.12581
head 4.31526 -2.70561 2.0693
rclavicle -3.68295e-015 1.80397e-014
rhumerus -55.6216 22.1752 -96.7014
rradius 54.3699
rwrist -12.1018
rhand -15.0692 -34.3306
rfingers 7.12502
rthumb 11.098 -64.0171
lclavicle -3.68295e-015 1.80397e-014
lhumerus -51.9147 -6.24322 76.0254
lradius 37.6579
lwrist 1.94933
lhand -16.1257 -7.58673
lfingers 7.12502
lthumb 10.0788 22.1519
rfemur -18.4566 -5.09323 20.2948
rtibia 60.9616
rfoot -1.54763 -12.5554
rtoes -18.2165
lfemur -40.7422 2.83186 -23.0701
ltibia 31.2362
lfoot -6.35433 -0.504571
ltoes -13.9413
403
root -10.3733 18.0498 9.7916 -158.375 -41.492 172.234
lowerback -7.03755 -0.159412 -9.70665
upperback -6.17432 -0.19691 -0.981448
thorax -2.53652 0.0417881 4.41307
lowerneck -2.89866 -3.61076 -4.51366
upperneck 11.9204 -5.47906 5.35977
head 4.30411 -2.74554 2.11319
rclavicle -1.23852e-015 -1.00883e-014
rhumerus -56.019 21.9005 -97.4016
rradius 53.274
rwrist -11.7769
rhand -15.1472 -34.2086
rfingers 7.12502
rthumb 11.0228 -63.8992
lclavicle -1.23852e-015 -1.00883e-014
lhumerus -51.8404 -7.0245 75.6605
lradius 38.1994
lwrist 2.50237
lhand -16.0408 -7.60168
lfingers 7.12502
lthumb 10.1608 22.133
rfemur -19.9475 -5.75083 20.1174
rtibia 63.0479
rfoot -2.12793 -14.4045
rtoes -13.8616
lfemur -40.0714 3.41298 -23.5083
ltibia 31.2661
lfoot -6.94163 -0.670132
ltoes -12.9572
404
root -10.4893 18.0836 9.70016 -158.478 -40.9811 172.227
lowerback -6.84358 -0.169937 -9.69167
upperback -6.2391 -0.249002 -1.08561
thorax -2.7059 0.0188622 4.29354
lowerneck -2.87532 -3.65553 -4.52388
upperneck 12.0732 -5.58523 5.55282
head 4.35729 -2.79368 2.16769
rclavicle -1.84889e-014 8.29926e-015
rhumerus -56.2025 21.7777 -97.7149
rradius 52.2501
rwrist -11.2176
rhand -14.1543 -34.1614
rfingers 7.12502
rthumb 11.9804 -63.7985
lclavicle -1.84889e-014 8.29926e-015
lhumerus -51.4886 -7.49926 75.5296
lradius 38.7009
lwrist 3.04318
lhand -16.2662 -7.30884
lfingers 7.12502
lthumb 9.94331 22.4363
rfemur -21.3354 -6.27724 20.0834
rtibia 64.7877
rfoot -2.54583 -15.7174
rtoes -12.3993
lfemur -39.3281 3.88989 -23.7596
ltibia 31.1881
lfoot -7.57517 -0.792658
ltoes -11.7131
405
root -10.6012 18.1143 9.60358 -158.662 -40.5274 172.344
lowerback -6.8782 -0.223817 -9.66512
upperback -6.16632 -0.308317 -1.06732
thorax -2.59964 -0.0166042 4.29509
lowerneck -3.05472 -3.76728 -4.79198
upperneck 12.2701 -5.75904 5.79272
head 4.47057 -2.87721 2.27053
rclavicle -4.12696e-014 5.31749e-015
rhumerus -56.1453 21.6476 -97.693
rradius 51.3075
rwrist -10.4626
rhand -12.4245 -34.3581
rfingers 7.12502
rthumb 13.6479 -63.8906
lclavicle -4.12696e-014 5.31749e-015
lhumerus -50.846 -7.49573 75.3126
lradius 38.9828
lwrist 3.20552
lhand -16.4772 -7.05057
lfingers 7.12502
lthumb 9.73981 22.7042
rfemur -22.6249 -6.55175 20.2085
rtibia 66.2398
rfoot -3.03461 -16.3637
rtoes -11.8873
lfemur -38.5652 4.39408 -23.8868
ltibia 31.0538
lfoot -8.05826 -0.812957
ltoes -11.5128
